<mxfile host="app.diagrams.net" modified="2024-06-06T20:06:39.414Z" agent="Mozilla/5.0 (X11; Linux x86_64) AppleWebKit/537.36 (KHTML, like Gecko) Chrome/116.0.0.0 Safari/537.36" etag="N4nfiPY2hiHQnFMroJ0D" version="24.4.13" type="device">
  <diagram name="PÃ¡gina-1" id="JRYb3RKUdCHzoXXMp7U5">
    <mxGraphModel dx="1315" dy="773" grid="1" gridSize="10" guides="1" tooltips="1" connect="1" arrows="1" fold="1" page="1" pageScale="1" pageWidth="827" pageHeight="1169" math="0" shadow="0">
      <root>
        <mxCell id="0" />
        <mxCell id="1" parent="0" />
        <mxCell id="wsbVVyFIO6Cvu7mr_73Y-51" value="Dense Layer" style="swimlane;whiteSpace=wrap;html=1;" vertex="1" parent="1">
          <mxGeometry x="200" y="50" width="120" height="350" as="geometry" />
        </mxCell>
        <mxCell id="wsbVVyFIO6Cvu7mr_73Y-47" value="" style="group" vertex="1" connectable="0" parent="wsbVVyFIO6Cvu7mr_73Y-51">
          <mxGeometry x="20" y="250" width="80" height="60" as="geometry" />
        </mxCell>
        <mxCell id="wsbVVyFIO6Cvu7mr_73Y-49" value="&lt;b&gt;&lt;font style=&quot;font-size: 24px;&quot;&gt;x7&lt;/font&gt;&lt;/b&gt;" style="text;html=1;align=center;verticalAlign=middle;whiteSpace=wrap;rounded=0;" vertex="1" parent="wsbVVyFIO6Cvu7mr_73Y-47">
          <mxGeometry x="20" y="30" width="60" height="30" as="geometry" />
        </mxCell>
        <mxCell id="wsbVVyFIO6Cvu7mr_73Y-38" value="" style="group" vertex="1" connectable="0" parent="wsbVVyFIO6Cvu7mr_73Y-51">
          <mxGeometry x="20" y="70" width="100" height="240" as="geometry" />
        </mxCell>
        <mxCell id="wsbVVyFIO6Cvu7mr_73Y-39" value="" style="ellipse;whiteSpace=wrap;html=1;aspect=fixed;" vertex="1" parent="wsbVVyFIO6Cvu7mr_73Y-38">
          <mxGeometry width="40" height="40" as="geometry" />
        </mxCell>
        <mxCell id="wsbVVyFIO6Cvu7mr_73Y-40" value="&lt;b&gt;&lt;font style=&quot;font-size: 24px;&quot;&gt;x7&lt;/font&gt;&lt;/b&gt;" style="text;html=1;align=center;verticalAlign=middle;whiteSpace=wrap;rounded=0;" vertex="1" parent="wsbVVyFIO6Cvu7mr_73Y-38">
          <mxGeometry x="20" y="30" width="60" height="30" as="geometry" />
        </mxCell>
        <mxCell id="wsbVVyFIO6Cvu7mr_73Y-125" value="" style="rounded=0;whiteSpace=wrap;html=1;fillColor=none;" vertex="1" parent="wsbVVyFIO6Cvu7mr_73Y-38">
          <mxGeometry x="-10" y="-10" width="80" height="250" as="geometry" />
        </mxCell>
        <mxCell id="wsbVVyFIO6Cvu7mr_73Y-41" value="" style="group" vertex="1" connectable="0" parent="wsbVVyFIO6Cvu7mr_73Y-51">
          <mxGeometry x="20" y="130" width="80" height="60" as="geometry" />
        </mxCell>
        <mxCell id="wsbVVyFIO6Cvu7mr_73Y-42" value="" style="ellipse;whiteSpace=wrap;html=1;aspect=fixed;" vertex="1" parent="wsbVVyFIO6Cvu7mr_73Y-41">
          <mxGeometry width="40" height="40" as="geometry" />
        </mxCell>
        <mxCell id="wsbVVyFIO6Cvu7mr_73Y-43" value="&lt;b&gt;&lt;font style=&quot;font-size: 24px;&quot;&gt;x7&lt;/font&gt;&lt;/b&gt;" style="text;html=1;align=center;verticalAlign=middle;whiteSpace=wrap;rounded=0;" vertex="1" parent="wsbVVyFIO6Cvu7mr_73Y-41">
          <mxGeometry x="20" y="30" width="60" height="30" as="geometry" />
        </mxCell>
        <mxCell id="wsbVVyFIO6Cvu7mr_73Y-44" value="" style="group" vertex="1" connectable="0" parent="wsbVVyFIO6Cvu7mr_73Y-51">
          <mxGeometry x="20" y="190" width="80" height="60" as="geometry" />
        </mxCell>
        <mxCell id="wsbVVyFIO6Cvu7mr_73Y-45" value="" style="ellipse;whiteSpace=wrap;html=1;aspect=fixed;" vertex="1" parent="wsbVVyFIO6Cvu7mr_73Y-44">
          <mxGeometry width="40" height="40" as="geometry" />
        </mxCell>
        <mxCell id="wsbVVyFIO6Cvu7mr_73Y-46" value="&lt;b&gt;&lt;font style=&quot;font-size: 24px;&quot;&gt;x7&lt;/font&gt;&lt;/b&gt;" style="text;html=1;align=center;verticalAlign=middle;whiteSpace=wrap;rounded=0;" vertex="1" parent="wsbVVyFIO6Cvu7mr_73Y-44">
          <mxGeometry x="20" y="30" width="60" height="30" as="geometry" />
        </mxCell>
        <mxCell id="wsbVVyFIO6Cvu7mr_73Y-48" value="" style="ellipse;whiteSpace=wrap;html=1;aspect=fixed;" vertex="1" parent="wsbVVyFIO6Cvu7mr_73Y-51">
          <mxGeometry x="20" y="250" width="40" height="40" as="geometry" />
        </mxCell>
        <mxCell id="wsbVVyFIO6Cvu7mr_73Y-52" value="&lt;b&gt;&lt;font style=&quot;font-size: 24px;&quot;&gt;x8&lt;/font&gt;&lt;/b&gt;" style="text;html=1;align=center;verticalAlign=middle;whiteSpace=wrap;rounded=0;" vertex="1" parent="wsbVVyFIO6Cvu7mr_73Y-51">
          <mxGeometry x="70" y="310" width="60" height="30" as="geometry" />
        </mxCell>
        <mxCell id="wsbVVyFIO6Cvu7mr_73Y-122" value="&lt;span style=&quot;font-size: 24px;&quot;&gt;&lt;b&gt;ReLU&lt;/b&gt;&lt;/span&gt;" style="text;html=1;align=center;verticalAlign=middle;whiteSpace=wrap;rounded=0;" vertex="1" parent="wsbVVyFIO6Cvu7mr_73Y-51">
          <mxGeometry x="30" y="30" width="60" height="30" as="geometry" />
        </mxCell>
        <mxCell id="wsbVVyFIO6Cvu7mr_73Y-65" value="Dense Layer" style="swimlane;whiteSpace=wrap;html=1;" vertex="1" parent="1">
          <mxGeometry x="320" y="50" width="130" height="350" as="geometry" />
        </mxCell>
        <mxCell id="wsbVVyFIO6Cvu7mr_73Y-66" value="" style="group" vertex="1" connectable="0" parent="wsbVVyFIO6Cvu7mr_73Y-65">
          <mxGeometry x="20" y="250" width="80" height="60" as="geometry" />
        </mxCell>
        <mxCell id="wsbVVyFIO6Cvu7mr_73Y-67" value="&lt;b&gt;&lt;font style=&quot;font-size: 24px;&quot;&gt;x7&lt;/font&gt;&lt;/b&gt;" style="text;html=1;align=center;verticalAlign=middle;whiteSpace=wrap;rounded=0;" vertex="1" parent="wsbVVyFIO6Cvu7mr_73Y-66">
          <mxGeometry x="20" y="30" width="60" height="30" as="geometry" />
        </mxCell>
        <mxCell id="wsbVVyFIO6Cvu7mr_73Y-68" value="" style="group" vertex="1" connectable="0" parent="wsbVVyFIO6Cvu7mr_73Y-65">
          <mxGeometry x="20" y="70" width="110" height="240" as="geometry" />
        </mxCell>
        <mxCell id="wsbVVyFIO6Cvu7mr_73Y-69" value="" style="ellipse;whiteSpace=wrap;html=1;aspect=fixed;" vertex="1" parent="wsbVVyFIO6Cvu7mr_73Y-68">
          <mxGeometry width="40" height="40" as="geometry" />
        </mxCell>
        <mxCell id="wsbVVyFIO6Cvu7mr_73Y-70" value="&lt;b&gt;&lt;font style=&quot;font-size: 24px;&quot;&gt;x7&lt;/font&gt;&lt;/b&gt;" style="text;html=1;align=center;verticalAlign=middle;whiteSpace=wrap;rounded=0;" vertex="1" parent="wsbVVyFIO6Cvu7mr_73Y-68">
          <mxGeometry x="20" y="30" width="60" height="30" as="geometry" />
        </mxCell>
        <mxCell id="wsbVVyFIO6Cvu7mr_73Y-126" value="" style="rounded=0;whiteSpace=wrap;html=1;fillColor=none;" vertex="1" parent="wsbVVyFIO6Cvu7mr_73Y-68">
          <mxGeometry x="-10" y="-10" width="80" height="250" as="geometry" />
        </mxCell>
        <mxCell id="wsbVVyFIO6Cvu7mr_73Y-71" value="" style="group" vertex="1" connectable="0" parent="wsbVVyFIO6Cvu7mr_73Y-65">
          <mxGeometry x="20" y="130" width="80" height="60" as="geometry" />
        </mxCell>
        <mxCell id="wsbVVyFIO6Cvu7mr_73Y-72" value="" style="ellipse;whiteSpace=wrap;html=1;aspect=fixed;" vertex="1" parent="wsbVVyFIO6Cvu7mr_73Y-71">
          <mxGeometry width="40" height="40" as="geometry" />
        </mxCell>
        <mxCell id="wsbVVyFIO6Cvu7mr_73Y-73" value="&lt;b&gt;&lt;font style=&quot;font-size: 24px;&quot;&gt;x7&lt;/font&gt;&lt;/b&gt;" style="text;html=1;align=center;verticalAlign=middle;whiteSpace=wrap;rounded=0;" vertex="1" parent="wsbVVyFIO6Cvu7mr_73Y-71">
          <mxGeometry x="20" y="30" width="60" height="30" as="geometry" />
        </mxCell>
        <mxCell id="wsbVVyFIO6Cvu7mr_73Y-74" value="" style="group" vertex="1" connectable="0" parent="wsbVVyFIO6Cvu7mr_73Y-65">
          <mxGeometry x="20" y="190" width="80" height="60" as="geometry" />
        </mxCell>
        <mxCell id="wsbVVyFIO6Cvu7mr_73Y-75" value="" style="ellipse;whiteSpace=wrap;html=1;aspect=fixed;" vertex="1" parent="wsbVVyFIO6Cvu7mr_73Y-74">
          <mxGeometry width="40" height="40" as="geometry" />
        </mxCell>
        <mxCell id="wsbVVyFIO6Cvu7mr_73Y-76" value="&lt;b&gt;&lt;font style=&quot;font-size: 24px;&quot;&gt;x7&lt;/font&gt;&lt;/b&gt;" style="text;html=1;align=center;verticalAlign=middle;whiteSpace=wrap;rounded=0;" vertex="1" parent="wsbVVyFIO6Cvu7mr_73Y-74">
          <mxGeometry x="20" y="30" width="60" height="30" as="geometry" />
        </mxCell>
        <mxCell id="wsbVVyFIO6Cvu7mr_73Y-77" value="" style="ellipse;whiteSpace=wrap;html=1;aspect=fixed;" vertex="1" parent="wsbVVyFIO6Cvu7mr_73Y-65">
          <mxGeometry x="20" y="250" width="40" height="40" as="geometry" />
        </mxCell>
        <mxCell id="wsbVVyFIO6Cvu7mr_73Y-78" value="&lt;b&gt;&lt;font style=&quot;font-size: 24px;&quot;&gt;x4&lt;/font&gt;&lt;/b&gt;" style="text;html=1;align=center;verticalAlign=middle;whiteSpace=wrap;rounded=0;" vertex="1" parent="wsbVVyFIO6Cvu7mr_73Y-65">
          <mxGeometry x="70" y="310" width="60" height="30" as="geometry" />
        </mxCell>
        <mxCell id="wsbVVyFIO6Cvu7mr_73Y-123" value="&lt;b style=&quot;font-size: 24px;&quot;&gt;ReLU&lt;/b&gt;" style="text;html=1;align=center;verticalAlign=middle;whiteSpace=wrap;rounded=0;" vertex="1" parent="wsbVVyFIO6Cvu7mr_73Y-65">
          <mxGeometry x="30" y="30" width="60" height="30" as="geometry" />
        </mxCell>
        <mxCell id="wsbVVyFIO6Cvu7mr_73Y-79" value="Input Layer" style="swimlane;whiteSpace=wrap;html=1;" vertex="1" parent="1">
          <mxGeometry x="80" y="50" width="120" height="350" as="geometry" />
        </mxCell>
        <mxCell id="wsbVVyFIO6Cvu7mr_73Y-80" value="" style="group" vertex="1" connectable="0" parent="wsbVVyFIO6Cvu7mr_73Y-79">
          <mxGeometry x="20" y="250" width="80" height="60" as="geometry" />
        </mxCell>
        <mxCell id="wsbVVyFIO6Cvu7mr_73Y-81" value="&lt;b&gt;&lt;font style=&quot;font-size: 24px;&quot;&gt;x7&lt;/font&gt;&lt;/b&gt;" style="text;html=1;align=center;verticalAlign=middle;whiteSpace=wrap;rounded=0;" vertex="1" parent="wsbVVyFIO6Cvu7mr_73Y-80">
          <mxGeometry x="20" y="30" width="60" height="30" as="geometry" />
        </mxCell>
        <mxCell id="wsbVVyFIO6Cvu7mr_73Y-82" value="" style="group" vertex="1" connectable="0" parent="wsbVVyFIO6Cvu7mr_73Y-79">
          <mxGeometry x="20" y="70" width="80" height="60" as="geometry" />
        </mxCell>
        <mxCell id="wsbVVyFIO6Cvu7mr_73Y-83" value="" style="ellipse;whiteSpace=wrap;html=1;aspect=fixed;" vertex="1" parent="wsbVVyFIO6Cvu7mr_73Y-82">
          <mxGeometry width="40" height="40" as="geometry" />
        </mxCell>
        <mxCell id="wsbVVyFIO6Cvu7mr_73Y-84" value="&lt;b&gt;&lt;font style=&quot;font-size: 24px;&quot;&gt;x7&lt;/font&gt;&lt;/b&gt;" style="text;html=1;align=center;verticalAlign=middle;whiteSpace=wrap;rounded=0;" vertex="1" parent="wsbVVyFIO6Cvu7mr_73Y-82">
          <mxGeometry x="20" y="30" width="60" height="30" as="geometry" />
        </mxCell>
        <mxCell id="wsbVVyFIO6Cvu7mr_73Y-85" value="" style="group" vertex="1" connectable="0" parent="wsbVVyFIO6Cvu7mr_73Y-79">
          <mxGeometry x="20" y="130" width="80" height="60" as="geometry" />
        </mxCell>
        <mxCell id="wsbVVyFIO6Cvu7mr_73Y-86" value="" style="ellipse;whiteSpace=wrap;html=1;aspect=fixed;" vertex="1" parent="wsbVVyFIO6Cvu7mr_73Y-85">
          <mxGeometry width="40" height="40" as="geometry" />
        </mxCell>
        <mxCell id="wsbVVyFIO6Cvu7mr_73Y-87" value="&lt;b&gt;&lt;font style=&quot;font-size: 24px;&quot;&gt;x7&lt;/font&gt;&lt;/b&gt;" style="text;html=1;align=center;verticalAlign=middle;whiteSpace=wrap;rounded=0;" vertex="1" parent="wsbVVyFIO6Cvu7mr_73Y-85">
          <mxGeometry x="20" y="30" width="60" height="30" as="geometry" />
        </mxCell>
        <mxCell id="wsbVVyFIO6Cvu7mr_73Y-88" value="" style="group" vertex="1" connectable="0" parent="wsbVVyFIO6Cvu7mr_73Y-79">
          <mxGeometry x="20" y="190" width="80" height="60" as="geometry" />
        </mxCell>
        <mxCell id="wsbVVyFIO6Cvu7mr_73Y-89" value="" style="ellipse;whiteSpace=wrap;html=1;aspect=fixed;" vertex="1" parent="wsbVVyFIO6Cvu7mr_73Y-88">
          <mxGeometry width="40" height="40" as="geometry" />
        </mxCell>
        <mxCell id="wsbVVyFIO6Cvu7mr_73Y-90" value="&lt;b&gt;&lt;font style=&quot;font-size: 24px;&quot;&gt;x7&lt;/font&gt;&lt;/b&gt;" style="text;html=1;align=center;verticalAlign=middle;whiteSpace=wrap;rounded=0;" vertex="1" parent="wsbVVyFIO6Cvu7mr_73Y-88">
          <mxGeometry x="20" y="30" width="60" height="30" as="geometry" />
        </mxCell>
        <mxCell id="wsbVVyFIO6Cvu7mr_73Y-91" value="" style="ellipse;whiteSpace=wrap;html=1;aspect=fixed;" vertex="1" parent="wsbVVyFIO6Cvu7mr_73Y-79">
          <mxGeometry x="20" y="250" width="40" height="40" as="geometry" />
        </mxCell>
        <mxCell id="wsbVVyFIO6Cvu7mr_73Y-111" value="" style="endArrow=classic;html=1;rounded=0;" edge="1" parent="wsbVVyFIO6Cvu7mr_73Y-79">
          <mxGeometry width="50" height="50" relative="1" as="geometry">
            <mxPoint x="-30" y="90" as="sourcePoint" />
            <mxPoint x="20" y="90" as="targetPoint" />
          </mxGeometry>
        </mxCell>
        <mxCell id="wsbVVyFIO6Cvu7mr_73Y-121" value="&lt;b&gt;&lt;font style=&quot;font-size: 24px;&quot;&gt;Input&lt;/font&gt;&lt;/b&gt;" style="text;html=1;align=center;verticalAlign=middle;whiteSpace=wrap;rounded=0;" vertex="1" parent="wsbVVyFIO6Cvu7mr_73Y-79">
          <mxGeometry x="30" y="30" width="60" height="30" as="geometry" />
        </mxCell>
        <mxCell id="wsbVVyFIO6Cvu7mr_73Y-93" value="Output Layer" style="swimlane;whiteSpace=wrap;html=1;" vertex="1" parent="1">
          <mxGeometry x="440" y="50" width="120" height="350" as="geometry" />
        </mxCell>
        <mxCell id="wsbVVyFIO6Cvu7mr_73Y-105" value="" style="ellipse;whiteSpace=wrap;html=1;aspect=fixed;" vertex="1" parent="wsbVVyFIO6Cvu7mr_73Y-93">
          <mxGeometry x="40" y="250" width="40" height="40" as="geometry" />
        </mxCell>
        <mxCell id="wsbVVyFIO6Cvu7mr_73Y-106" value="" style="ellipse;whiteSpace=wrap;html=1;aspect=fixed;" vertex="1" parent="wsbVVyFIO6Cvu7mr_73Y-93">
          <mxGeometry x="40" y="190" width="40" height="40" as="geometry" />
        </mxCell>
        <mxCell id="wsbVVyFIO6Cvu7mr_73Y-107" value="" style="ellipse;whiteSpace=wrap;html=1;aspect=fixed;" vertex="1" parent="wsbVVyFIO6Cvu7mr_73Y-93">
          <mxGeometry x="40" y="130" width="40" height="40" as="geometry" />
        </mxCell>
        <mxCell id="wsbVVyFIO6Cvu7mr_73Y-108" value="" style="ellipse;whiteSpace=wrap;html=1;aspect=fixed;" vertex="1" parent="wsbVVyFIO6Cvu7mr_73Y-93">
          <mxGeometry x="40" y="70" width="40" height="40" as="geometry" />
        </mxCell>
        <mxCell id="wsbVVyFIO6Cvu7mr_73Y-124" value="&lt;span style=&quot;font-size: 24px;&quot;&gt;&lt;b&gt;Sigmoid&lt;/b&gt;&lt;/span&gt;" style="text;html=1;align=center;verticalAlign=middle;whiteSpace=wrap;rounded=0;" vertex="1" parent="wsbVVyFIO6Cvu7mr_73Y-93">
          <mxGeometry x="30" y="30" width="60" height="30" as="geometry" />
        </mxCell>
        <mxCell id="wsbVVyFIO6Cvu7mr_73Y-113" value="" style="endArrow=classic;html=1;rounded=0;" edge="1" parent="1">
          <mxGeometry width="50" height="50" relative="1" as="geometry">
            <mxPoint x="50" y="200" as="sourcePoint" />
            <mxPoint x="100" y="200" as="targetPoint" />
          </mxGeometry>
        </mxCell>
        <mxCell id="wsbVVyFIO6Cvu7mr_73Y-115" value="" style="endArrow=classic;html=1;rounded=0;" edge="1" parent="1">
          <mxGeometry width="50" height="50" relative="1" as="geometry">
            <mxPoint x="50" y="260" as="sourcePoint" />
            <mxPoint x="100" y="260" as="targetPoint" />
          </mxGeometry>
        </mxCell>
        <mxCell id="wsbVVyFIO6Cvu7mr_73Y-116" value="" style="endArrow=classic;html=1;rounded=0;" edge="1" parent="1">
          <mxGeometry width="50" height="50" relative="1" as="geometry">
            <mxPoint x="50" y="320" as="sourcePoint" />
            <mxPoint x="100" y="320" as="targetPoint" />
          </mxGeometry>
        </mxCell>
        <mxCell id="wsbVVyFIO6Cvu7mr_73Y-117" value="" style="endArrow=classic;html=1;rounded=0;" edge="1" parent="1">
          <mxGeometry width="50" height="50" relative="1" as="geometry">
            <mxPoint x="520" y="140" as="sourcePoint" />
            <mxPoint x="600" y="140" as="targetPoint" />
          </mxGeometry>
        </mxCell>
        <mxCell id="wsbVVyFIO6Cvu7mr_73Y-118" value="" style="endArrow=classic;html=1;rounded=0;" edge="1" parent="1">
          <mxGeometry width="50" height="50" relative="1" as="geometry">
            <mxPoint x="520" y="200" as="sourcePoint" />
            <mxPoint x="600" y="200" as="targetPoint" />
          </mxGeometry>
        </mxCell>
        <mxCell id="wsbVVyFIO6Cvu7mr_73Y-119" value="" style="endArrow=classic;html=1;rounded=0;" edge="1" parent="1">
          <mxGeometry width="50" height="50" relative="1" as="geometry">
            <mxPoint x="520" y="260" as="sourcePoint" />
            <mxPoint x="600" y="260" as="targetPoint" />
          </mxGeometry>
        </mxCell>
        <mxCell id="wsbVVyFIO6Cvu7mr_73Y-120" value="" style="endArrow=classic;html=1;rounded=0;" edge="1" parent="1">
          <mxGeometry width="50" height="50" relative="1" as="geometry">
            <mxPoint x="520" y="320" as="sourcePoint" />
            <mxPoint x="600" y="320" as="targetPoint" />
          </mxGeometry>
        </mxCell>
        <mxCell id="wsbVVyFIO6Cvu7mr_73Y-128" value="&lt;b style=&quot;forced-color-adjust: none; color: rgb(0, 0, 0); font-family: Helvetica; font-size: 12px; font-style: normal; font-variant-ligatures: normal; font-variant-caps: normal; letter-spacing: normal; orphans: 2; text-align: center; text-indent: 0px; text-transform: none; widows: 2; word-spacing: 0px; -webkit-text-stroke-width: 0px; white-space: normal; background-color: rgb(251, 251, 251); text-decoration-thickness: initial; text-decoration-style: initial; text-decoration-color: initial;&quot;&gt;&lt;font style=&quot;forced-color-adjust: none; font-size: 24px;&quot;&gt;28&lt;/font&gt;&lt;/b&gt;" style="text;whiteSpace=wrap;html=1;" vertex="1" parent="1">
          <mxGeometry x="117.5" y="400" width="32.5" height="50" as="geometry" />
        </mxCell>
        <mxCell id="wsbVVyFIO6Cvu7mr_73Y-129" value="&lt;b style=&quot;forced-color-adjust: none; color: rgb(0, 0, 0); font-family: Helvetica; font-size: 12px; font-style: normal; font-variant-ligatures: normal; font-variant-caps: normal; letter-spacing: normal; orphans: 2; text-align: center; text-indent: 0px; text-transform: none; widows: 2; word-spacing: 0px; -webkit-text-stroke-width: 0px; white-space: normal; background-color: rgb(251, 251, 251); text-decoration-thickness: initial; text-decoration-style: initial; text-decoration-color: initial;&quot;&gt;&lt;font style=&quot;forced-color-adjust: none; font-size: 24px;&quot;&gt;224&lt;/font&gt;&lt;/b&gt;" style="text;whiteSpace=wrap;html=1;" vertex="1" parent="1">
          <mxGeometry x="243.75" y="400" width="32.5" height="50" as="geometry" />
        </mxCell>
        <mxCell id="wsbVVyFIO6Cvu7mr_73Y-130" value="&lt;b style=&quot;forced-color-adjust: none; color: rgb(0, 0, 0); font-family: Helvetica; font-size: 12px; font-style: normal; font-variant-ligatures: normal; font-variant-caps: normal; letter-spacing: normal; orphans: 2; text-align: center; text-indent: 0px; text-transform: none; widows: 2; word-spacing: 0px; -webkit-text-stroke-width: 0px; white-space: normal; background-color: rgb(251, 251, 251); text-decoration-thickness: initial; text-decoration-style: initial; text-decoration-color: initial;&quot;&gt;&lt;font style=&quot;forced-color-adjust: none; font-size: 24px;&quot;&gt;112&lt;/font&gt;&lt;/b&gt;" style="text;whiteSpace=wrap;html=1;" vertex="1" parent="1">
          <mxGeometry x="360" y="400" width="32.5" height="50" as="geometry" />
        </mxCell>
        <mxCell id="wsbVVyFIO6Cvu7mr_73Y-131" value="&lt;b style=&quot;forced-color-adjust: none; color: rgb(0, 0, 0); font-family: Helvetica; font-size: 12px; font-style: normal; font-variant-ligatures: normal; font-variant-caps: normal; letter-spacing: normal; orphans: 2; text-align: center; text-indent: 0px; text-transform: none; widows: 2; word-spacing: 0px; -webkit-text-stroke-width: 0px; white-space: normal; background-color: rgb(251, 251, 251); text-decoration-thickness: initial; text-decoration-style: initial; text-decoration-color: initial;&quot;&gt;&lt;font style=&quot;forced-color-adjust: none; font-size: 24px;&quot;&gt;4&lt;/font&gt;&lt;/b&gt;" style="text;whiteSpace=wrap;html=1;" vertex="1" parent="1">
          <mxGeometry x="483.75" y="400" width="32.5" height="50" as="geometry" />
        </mxCell>
      </root>
    </mxGraphModel>
  </diagram>
</mxfile>
